<svg width="55" height="66" viewBox="0 0 55 66" fill="none" xmlns="http://www.w3.org/2000/svg">
<g clip-path="url(#clip0_106_14)">
<path d="M55 16.4404V49.4373L49.0951 52.9939L49.1011 45.9358L49.1071 45.9297V45.9174V27.0336L33.3719 36.5107L27.5 40.0459L21.6431 36.5443L5.91685 27.1498L5.97683 46.0183V46.0336L5.98282 46.0367L6.00982 53.107L0.107961 49.5688L0.0239913 23.63L0.00299891 17.3853L0 16.5719L5.90185 20.1009H5.90485L27.5 33.0031L49.0742 20.0092L49.0951 19.9969L55 16.4404Z" fill="white"/>
<path d="M55 16.3242V16.4404L49.0952 19.9969L49.0742 20.0092L48.8432 19.8777L27.392 6.99388L6.10878 19.9786L5.90485 20.1009H5.90185L0 16.5719V16.4526L27.3291 0L55 16.3242Z" fill="#88CFFA"/>
<path d="M49.1012 45.9358L49.0952 52.9939L27.5 66L6.01884 53.1162L6.00984 53.107L5.98285 46.0367V46.0153L21.6432 36.5443L27.5 40.0459L11.8787 49.5719L27.5 58.945L49.1012 45.9358Z" fill="#88CFFA"/>
</g>
<defs>
<clipPath id="clip0_106_14">
<rect width="55" height="66" fill="white"/>
</clipPath>
</defs>
</svg>
