<svg width="55" height="66" viewBox="0 0 55 66" fill="none" xmlns="http://www.w3.org/2000/svg">
<g clip-path="url(#clip0_106_14)">
<path d="M-2.98023e-07 16.4404V49.4373L5.90485 52.9939L5.89886 45.9358L5.89286 45.9297V45.9174V27.0336L21.6281 36.5107L27.5 40.0459L33.3569 36.5443L49.0832 27.1498L49.0232 46.0183V46.0336L49.0172 46.0367L48.9902 53.107L54.892 49.5688L54.976 23.63L54.997 17.3853L55 16.5719L49.0981 20.1009H49.0951L27.5 33.0031L5.92584 20.0092L5.90485 19.9969L-2.98023e-07 16.4404Z" fill="#88CFFA"/>
<path d="M-1.19157e-06 16.3242V16.4404L5.90485 19.9969L5.92584 20.0092L6.15676 19.8777L27.608 6.99388L48.8912 19.9786L49.0951 20.1009H49.0981L55 16.5719V16.4526L27.6709 0L-1.19157e-06 16.3242Z" fill="white"/>
<path d="M5.89883 45.9358L5.90482 52.9939L27.5 66L48.9812 53.1162L48.9902 53.107L49.0172 46.0367V46.0153L33.3568 36.5443L27.5 40.0459L43.1213 49.5719L27.5 58.945L5.89883 45.9358Z" fill="white"/>
</g>
<defs>
<clipPath id="clip0_106_14">
<rect width="55" height="66" fill="white" transform="matrix(-1 0 0 1 55 0)"/>
</clipPath>
</defs>
</svg>
